<svg xmlns="http://www.w3.org/2000/svg" id="Layer_1" data-name="Layer 1" viewBox="0 0 338.81 377.79"><path d="M262.34,187.09c0-9.12.12-17.87,0-26.62A10.31,10.31,0,0,0,251.76,150q-28.69-.28-57.39,0c-6.39.06-10.09,4.28-10.81,11.17s-6.53,10.61-12.87,8.43c-4-1.36-6.09-4.41-6.19-8.86-.32-15.25,12.21-29.31,27.48-29.69,20-.5,40-.46,60-.13,17.13.28,29.4,13.13,29.67,30.36.13,8.49,0,17,0,26.1h4.11c8.62,0,17.25-.05,25.88,0,15.75.1,27,11.23,27.07,26.93q.11,60,0,120.06c-.08,24.56-19.2,43.29-44.17,43.38-31.14.12-62.27,0-93.41,0-16.5,0-33,.11-49.51,0-22-.18-39.32-14.12-43.45-35.07a55.9,55.9,0,0,1-.85-10.82q-.09-50.08,0-100.17c0-3.11-.8-4.63-3.7-6.26a60.07,60.07,0,0,1-11.61-9.18c-1.66-1.58-2.78-2.17-5.07-1.64-6.43,1.49-12.93,3.57-19.42,3.65-14,.17-25.22-9.13-28.83-22.89-4.88-18.6-9.54-37.25-14.3-55.88-7.63-29.88-14.82-59.89-23-89.6-5.72-20.68,6.85-37.41,24-40.78,11.13-2.19,22-5.52,33-8.31s18.85,2,21.69,13.05q19,74.21,38,148.42c.58,2.28,1.4,3.18,3.78,3.6,11.42,2,19.5,8.38,24.36,19a4.67,4.67,0,0,0,3.34,2.41q55.51.18,111,.09A17.1,17.1,0,0,0,262.34,187.09ZM126.66,227.27V309H319.45V216.7c0-8.17-1.77-10-9.81-10H151.37a9.07,9.07,0,0,0-2.61.06,3.62,3.62,0,0,0-2.14,1.48A33.16,33.16,0,0,1,126.66,227.27ZM61.83,19.74c-11.17,2.84-22,5.62-32.88,8.36-7.89,2-11.17,7.28-9.19,15.09q10,39.56,20.13,79.1Q48.49,156,57.1,189.77c1.94,7.56,7.29,10.76,14.61,9,3.51-.87,7-1.94,10.53-2.64,2.52-.49,3.33-1.85,3.69-4.25a29.06,29.06,0,0,1,11.21-19.27c2.48-1.92,3-3.55,2.2-6.46Q84.25,107.55,69.36,49C66.9,39.3,64.39,29.67,61.83,19.74Zm65.05,308.83c-2.85,15.45,8.06,29.75,23,29.79q73.1.21,146.19,0c15.43-.05,26.3-14.45,22.85-29.79ZM104.75,197.12c.08,7.2,5.2,12.36,12.23,12.32a12.52,12.52,0,0,0,0-25C109.9,184.35,104.67,189.78,104.75,197.12Z" fill="#d3aa68"/><path d="M223,118.27c-21.46,0-39.19-18-37.74-39.32.43-6.32,3.29-12.78,6.24-18.57C197.67,48.3,206.36,37.9,215.56,28c4.31-4.65,10.36-4.94,14.56-.44C240.8,39,250.27,51.29,257.37,65.41,269.5,89.49,250.3,118.45,223,118.27Zm.07-69.78c-7.65,8.13-14,16.7-17.07,27.24-3.8,12.94,2.66,22.08,16.12,23.16,12.56,1,21.29-8.73,18.54-20.94C238,66.37,231.19,57.24,223.07,48.49Z" fill="#d3aa68"/></svg>