<svg xmlns="http://www.w3.org/2000/svg" id="Layer_1" data-name="Layer 1" viewBox="0 0 512 433.18"><path d="M512,354.19c-3.12,10.12-4.88,20.93-9.61,30.23-15.24,30-40.33,46.44-73.93,48.54-27.63,1.72-53.3-6.69-78-18.1-34.94-16.14-66.25-38.25-97.62-60.24C219.16,331,185.72,307,151.45,284.33c-29.65-19.65-61.25-35.95-96.09-44.39-14.62-3.54-29.83-4.8-44.85-6.5C6,232.93,2.49,232,0,228.19v-30c2.6-4.05,6.3-5.11,11-5.06,64.37.62,125.23,15.81,182.61,44.65,27.33,13.74,53.86,29.07,81.12,43,15.21,7.75,31.12,14.16,46.87,20.81,4.2,1.77,9,2.17,14.37,3.4V299q0-24,0-48c0-7.06,2.87-9.86,10-9.86,52,0,103.94.05,155.91-.09A11.6,11.6,0,0,1,512,246.19ZM352.22,281.3c0,23.6-1.23,46.8.26,69.84,2.86,44.1,45.7,74.44,88.62,64a71.82,71.82,0,0,0,54.8-68.54c.37-20.66.09-41.33.08-62a25.55,25.55,0,0,0-.44-3.3Zm.69,116.43c-17.57-23.07-17.87-49.86-16.73-76.8-33.5-4.49-60.75-21.9-89.46-37.08-3.27,13.38-11,23.13-22.08,30.78C266.6,344.33,306.69,375.48,352.91,397.73ZM16.26,217.16c7.58.87,15,1.45,22.4,2.64,32.4,5.25,62.68,16.86,90.86,33.22C155.24,268,180,284.6,205,300.78c3.78,2.44,6.62,2.74,10.38.5a33,33,0,0,0,15.88-21.38c.78-3.15.1-4.75-2.75-6.34C173,242.61,115.23,218.22,51.27,211.65c-11.54-1.18-23.13-1.79-35-2.69Zm335.87,47.72H495.61v-7.25H352.13Z" fill="#d3aa68"/><path d="M423.8,0c2.73,2.05,5.94,3.26,6.74,5.38,1,2.52.58,6.14-.51,8.75-2.95,7-7.33,13.47-9.81,20.61-8.08,23.27-4.34,45.64,6.75,67,6.58,12.69,13.94,25,17.49,39q10.64,42.21-12.56,79c-3.33,5.28-8.12,6.72-12.17,4S415,216.57,418,212c18.87-29.19,18.15-59,2.19-88.9C412.09,107.9,404,92.85,401.42,75.54,397.64,50.41,402.8,27.24,416.61,6,418.1,3.73,421,2.33,423.8,0Z" fill="#d3aa68"/><path d="M399.88,166.31c-.39,19.64-5.44,37.2-15.87,53a14.67,14.67,0,0,1-8.18,5.48c-1.79.45-5.52-1.77-6.27-3.64a12.58,12.58,0,0,1,.3-8.75c3-7.17,7.45-13.78,10-21.08,8-22.91,4.14-44.94-6.45-66.17-1.34-2.68-3-5.22-4.22-7.93-2.06-4.4-.83-8.73,2.88-10.86,3.93-2.25,8.62-1.11,11.05,3.43a212.91,212.91,0,0,1,10.13,21.11A98.12,98.12,0,0,1,399.88,166.31Z" fill="#d3aa68"/><path d="M495.88,166c-.35,19.3-5.21,36.37-14.88,52a28.8,28.8,0,0,1-2.52,3.71c-3.22,3.72-7.62,4.39-11.1,1.8s-4.05-6.65-1.77-11.12c3.62-7.07,7.74-14,10.32-21.47,7.89-22.75,4-44.6-6.47-65.68-1.12-2.23-2.4-4.38-3.53-6.6-2.89-5.65-2-10.13,2.49-12.45,4.3-2.23,8.63-.63,11.42,4.76,3.35,6.49,6.67,13,9.36,19.82A98.82,98.82,0,0,1,495.88,166Z" fill="#d3aa68"/></svg>