<svg xmlns="http://www.w3.org/2000/svg" id="Layer_1" data-name="Layer 1" viewBox="0 0 279.64 262.49"><path d="M94.43,182.3c-4.93-2.13-9.73-3.9-14.26-6.21-39.73-20.29-64.59-52-73.88-95.87A286.34,286.34,0,0,1,.34,6.48C.51,3,1.9.6,5.6.43,46.18-1.44,85.87,2.28,122.37,21.87c25.34,13.6,42.41,35.21,54.93,60.68.72,1.46,1.38,2.94,2.09,4.4.1.21.32.36.22.26,10.76-2.51,21.21-5.4,31.84-7.35a251.68,251.68,0,0,1,62-3.59c3.58.23,5.71,1.93,5.86,5.48C280.8,117.16,278,152.11,264,185c-16.29,38.14-45.37,62.91-84.9,74.5-30.41,8.92-60.46-3-76.17-28.27-8.23-13.26-10.8-27.76-9.17-43.13C93.94,186.18,94.2,184.21,94.43,182.3Zm100.25-14.12.38.91h4q16.5,0,33,0c1.37,0,3.11-.35,4,.33,1.64,1.21,3.54,2.91,4,4.72.59,2.48-1.13,4.54-3.82,5.14a18.56,18.56,0,0,1-4.09.29c-15.13,0-30.26-.07-45.38.12a9.31,9.31,0,0,0-5.8,2.37c-7.85,7.53-15.46,15.31-23.14,23-.74.75-1.41,1.58-2.68,3h21.3c6.25,0,12.5-.06,18.75,0,3.79.06,6.08,2.13,6.08,5.19s-2.31,5.05-6.08,5.26c-1,.06-2,0-3,0-14.75,0-29.5,0-44.26,0-1.41,0-3.29.1-4.17,1-6.65,6.39-13.1,13-19.8,19.71,1.3,1,2.32,1.9,3.42,2.67,14.39,9.93,30.41,12.48,46.89,7.92,37.58-10.4,65-33.32,80.27-69.52,11.65-27.63,14.65-56.92,14.53-86.63V86.63c-1.86-.15-3.09-.31-4.32-.33a294,294,0,0,0-62.19,5.87c-38.05,7.85-67,28.22-86.28,62-9.18,16.09-14.67,33.11-11.7,51.95a51.06,51.06,0,0,0,11.72,25.64c6-6,11.58-11.83,17.47-17.41a9.65,9.65,0,0,0,3.19-7.84c-.15-15.13-.08-30.26-.06-45.38,0-4.3,1.65-6.56,4.81-6.82,3.5-.28,5.66,2,5.67,6.24,0,12,0,24,0,36,0,1,.14,2.07.27,3.86,9-9,17.54-17.45,25.85-26.07a8.75,8.75,0,0,0,2.25-5.47c.17-15.62.08-31.25.11-46.88,0-4.38,1.91-6.71,5.32-6.69s5.16,2.26,5.16,6.78c0,11.87,0,23.75,0,35.63,0,1,.14,2,.26,3.63,9.38-9.38,18.25-18.18,27-27.1a5.79,5.79,0,0,0,1.17-3.68c.11-7.75,0-15.5.06-23.25,0-4.28,2.06-6.74,5.39-6.66s5.07,2.45,5.1,6.54c0,4.81,0,9.63,0,15.18,1.49-1.37,2.4-2.15,3.24-3L250.11,98c.62-.62,1.21-1.27,1.86-1.85,2.54-2.29,5.64-2.5,7.74-.54,2.29,2.14,2.27,5.33-.32,8-7.73,7.83-15.54,15.57-23.31,23.36-.82.83-1.58,1.72-3,3.3,6,0,11.1-.12,16.17,0,4.36.13,7.14,4.13,4.87,7.35a8.48,8.48,0,0,1-5.87,3c-7.74.34-15.5.09-23.25.19a5.89,5.89,0,0,0-3.74,1.08C212.32,150.51,203.52,159.36,194.68,168.18ZM93.34,85.82V81.64c0-12,0-24,0-36,0-5,4.29-8.08,7.77-5.37,1.54,1.2,2.57,4,2.6,6,.21,15.62,0,31.25.21,46.87a8.48,8.48,0,0,0,2.14,5.13c4.23,4.58,8.83,8.83,13.16,13.34,2.9,3,5.57,6.24,8,9,3.92-2.1,4.55-4.48,4.56-7.5,0-9.62.3-19.24.56-28.86.11-4.29,3.24-6.8,6.87-5.57,2.76.94,3.64,3.13,3.62,5.91,0,7.32,0,14.64,0,21.7L169.4,91.1a.78.78,0,0,0-.07-.44c-13.59-30-33.87-53.41-65.13-66C83.71,16.45,62.28,12.51,40.36,11.2,30.69,10.63,21,11.11,11,11.11c-.06.8-.2,1.89-.23,3a275.86,275.86,0,0,0,5.34,61.47c7.57,38,27.38,67.38,61.12,86.89,6.27,3.63,13,6.47,19,9.46l14-29.36h-4c-7.5,0-15,0-22.5-.05a4.82,4.82,0,0,1-5.19-4.82c-.22-3.05,1.59-4.9,4.54-5.48a17.16,17.16,0,0,1,3.37-.15c9.62,0,19.25-.1,28.87,0,2.88.05,4.77-.79,5.79-3.7-7.83-7.84-15.64-15.74-23.6-23.49a6.32,6.32,0,0,0-4-1.27c-8.62-.11-17.25,0-25.87,0-7.5,0-15,.08-22.5-.06-4.4-.08-6.79-3.78-5-7.38,1.3-2.67,3.69-3.07,6.31-3.07H85.73c-7.35-7.36-14.37-13.57-20.39-20.65-5.27-6.19-11.11-8.76-19.15-7.85-5.43.62-11,.19-16.48,0-3.07-.13-4.76-2.09-4.73-5.2,0-2.94,1.73-4.62,4.57-5a39.34,39.34,0,0,1,4.86-.13c3.78,0,7.56,0,12.21,0-1.57-1.67-2.38-2.58-3.24-3.44C35.79,43.17,28.17,35.59,20.6,28c-2.82-2.84-3.05-5.94-.79-8.23s5.32-2.23,8.22.63q9.6,9.5,19.1,19.09c2.17,2.17,4.29,4.39,7.2,7.37,0-6,0-10.81,0-15.63,0-4,1.95-6.45,5.12-6.53s5.35,2.42,5.36,6.66c0,7.75,0,15.5.05,23.25,0,1.17.13,2.71.84,3.44C74.6,67.09,83.6,76.06,93.34,85.82Z" fill="#d3aa68"/></svg>